<svg xmlns="http://www.w3.org/2000/svg" viewBox="0 0 253.486 125.685" width="253.486" height="125.685">
  <g id="wordmark" fill="#231916">
    <path id="P-stem" d="M9.397 0L0 0L0 125.685L9.397 125.685C9.916 125.685 10.337 125.264 10.337 124.745L10.337 0.94C10.337 0.421 9.916 0 9.397 0Z"/>
    <path id="P-bowl" d="M20.674 0L20.674 9.425C20.674 9.919 21.057 10.334 21.55 10.36C30.19 10.817 37.079 17.991 37.079 26.743L37.079 54.08C37.079 62.832 30.19 70.005 21.55 70.463C21.057 70.489 20.674 70.904 20.674 71.398L20.674 80.823C35.419 80.823 47.416 68.826 47.416 54.08L47.416 26.743C47.416 11.997 35.419 0 20.674 0Z"/>
    <path id="e" d="M79.742 43.286C64.807 43.059 52.584 55.142 52.584 70.026L52.584 98.527C52.584 113.42 64.577 125.763 79.469 125.685C93.857 125.609 105.585 114.112 106.047 99.817L96.576 99.817C96.1 99.817 95.693 100.171 95.644 100.644C94.789 108.91 87.772 115.373 79.278 115.348C70.185 115.322 62.921 107.723 62.921 98.63L62.921 70.353C62.921 61.174 70.432 53.466 79.61 53.622C88.526 53.774 95.733 61.074 95.733 70.026L95.733 78.204C95.733 78.723 95.312 79.144 94.793 79.144L74.197 79.144C73.678 79.144 73.258 79.564 73.258 80.083L73.258 89.48L106.07 89.48L106.07 70.432C106.07 55.756 94.416 43.51 79.742 43.286Z"/>
    <path id="n" d="M169.891 70.026L169.891 125.685L160.494 125.685C159.975 125.685 159.554 125.264 159.554 124.745L159.554 70.352C159.554 61.174 152.043 53.466 142.866 53.622C133.95 53.774 126.743 61.074 126.743 70.026L126.743 124.745C126.743 125.264 126.322 125.685 125.803 125.685L116.406 125.685L116.406 70.432C116.406 55.756 128.059 43.51 142.733 43.286C157.668 43.058 169.891 55.141 169.891 70.026Z"/>
    <path id="d-bowl" d="M180.228 70.026L180.228 98.943C180.228 113.688 192.225 125.685 206.97 125.685L206.97 116.26C206.97 115.766 206.587 115.351 206.094 115.325C197.454 114.868 190.565 107.695 190.565 98.943L190.565 70.026C190.565 61.273 197.454 54.1 206.094 53.643C206.587 53.617 206.97 53.202 206.97 52.708L206.97 43.283C192.225 43.283 180.228 55.28 180.228 70.026Z"/>
    <path id="d-stem" d="M217.307 0.94L217.307 124.745C217.307 125.264 217.728 125.685 218.247 125.685L227.644 125.685L227.644 0L218.247 0C217.728 0 217.307 0.421 217.307 0.94Z"/>
    <path id="i-dot" d="M243.149 0L243.149 19.734C243.149 20.253 243.57 20.674 244.089 20.674L252.546 20.674C253.065 20.674 253.486 20.253 253.486 19.734L253.486 0L243.149 0Z"/>
    <path id="i-stem" d="M252.546 31.01L244.088 31.01C243.569 31.01 243.149 31.431 243.149 31.95L243.149 125.685L253.485 125.685L253.485 31.95C253.485 31.431 253.065 31.01 252.546 31.01Z"/>
  </g>
</svg>
