<svg xmlns="http://www.w3.org/2000/svg">
<!-- Original code-drawn botanical abstractions, not photographs or a traced menu. -->
<symbol id="tomate" viewBox="0 0 300 190"><g fill="currentColor"><path opacity=".2" d="M76 42C33 84 55 151 95 153c39 3 68-12 60-57-6-37-47-54-79-54Z"/><path d="M174 56c-24-20-78-2-86 38-6 34 21 61 55 58 16-1 32-12 44-24 34-34 11-73-13-72Zm-35 18c-12 22-12 48-1 65-24-5-34-41 1-65Z"/><path d="m153 68-31-28 25 9 9-27 7 30 27-10-18 19 30 16-34-3-15 17Z"/></g><g fill="none" stroke="currentColor" opacity=".45"><ellipse cx="148" cy="94" rx="100" ry="69" transform="rotate(-17 148 94)"/><path d="M48 143 243 48M219 27v18m-9-9h18"/></g></symbol>
<symbol id="kakao" viewBox="0 0 300 190"><g fill="currentColor"><path opacity=".3" d="M70 129C53 49 144 32 190 28c20 51-1 115-53 130-39 11-60-3-67-29Z"/><path d="M105 140C84 74 155 36 193 42c11 47-4 88-35 109-22 14-42 8-53-11Zm60-79c-39 21-51 59-43 73 4-28 26-49 43-73Z"/><ellipse cx="207" cy="144" rx="12" ry="20" transform="rotate(39 207 144)"/></g><g fill="none" stroke="currentColor" opacity=".45"><ellipse cx="149" cy="97" rx="102" ry="66" transform="rotate(-26 149 97)"/><path d="M68 164 206 21M214 46h22m-11-11v22"/></g></symbol>
<symbol id="gurke" viewBox="0 0 300 190"><g fill="none" stroke="currentColor"><path stroke-width="19" opacity=".55" d="M87 145C39 99 175 58 176 39M121 159C73 113 209 72 210 53"/><path stroke-width="3" d="M132 158C106 116 174 82 167 37"/><ellipse opacity=".4" cx="150" cy="97" rx="107" ry="66" transform="rotate(-20 150 97)"/></g><g fill="currentColor"><path d="M114 104c-4-37-21-43-36-42 1 20 12 36 36 42Zm30-31c2-34 23-40 38-35-4 20-16 31-38 35Z"/><circle cx="220" cy="132" r="3"/><circle cx="230" cy="143" r="2"/><circle cx="216" cy="149" r="2"/></g></symbol>
<symbol id="mandarine" viewBox="0 0 300 190"><g fill="currentColor"><path opacity=".28" d="M83 82a66 66 0 1 1 87 76 74 74 0 0 0-87-76Z"/><path d="M179 32a65 65 0 1 0 41 111c-35 12-68-4-78-30-12-33 3-62 37-81Z"/><path d="M177 39c-1-24 19-27 37-21-9 20-22 23-37 21Z"/></g><g fill="none" stroke="currentColor" opacity=".45"><ellipse cx="149" cy="96" rx="104" ry="67" transform="rotate(-20 149 96)"/><path d="m65 53 175 87M215 29v18m-9-9h18"/></g></symbol>
<symbol id="birne" viewBox="0 0 300 190"><g fill="currentColor"><path opacity=".24" d="M109 33c-28 23-11 40-46 75-36 37 18 67 48 44s7-66 28-85c23-22 3-50-30-34Z"/><path d="M154 37c-18 11-11 38-28 57-19 21-34 48-10 61 42 24 99-8 79-42-24-40-12-58-27-71Zm9 32c1 28 23 41 21 62-13-24-38-33-21-62Z"/><path d="M161 36c-4-19 9-24 20-23-2 10-9 17-20 23Z"/></g><g fill="none" stroke="currentColor" opacity=".45"><ellipse cx="151" cy="98" rx="102" ry="67" transform="rotate(-20 151 98)"/><path d="M65 151 221 38m-17 0h20m-10-10v20"/></g></symbol>
<symbol id="reis" viewBox="0 0 300 190"><g fill="none" stroke="currentColor"><path stroke-width="2" d="M104 164c21-71 63-78 78-137M135 167c-3-55 60-65 86-95"/><ellipse opacity=".4" cx="150" cy="96" rx="105" ry="66" transform="rotate(-20 150 96)"/></g><g fill="currentColor"><ellipse cx="151" cy="63" rx="7" ry="20" transform="rotate(-37 151 63)"/><ellipse cx="182" cy="72" rx="6" ry="20" transform="rotate(53 182 72)"/><ellipse cx="126" cy="91" rx="7" ry="20" transform="rotate(-30 126 91)"/><ellipse cx="157" cy="106" rx="6" ry="20" transform="rotate(57 157 106)"/><ellipse cx="108" cy="126" rx="6" ry="19" transform="rotate(-26 108 126)"/><path opacity=".5" d="M167 129c4-30 28-40 39-38-7 22-20 29-39 38Z"/><circle cx="77" cy="43" r="3"/><circle cx="87" cy="53" r="2"/></g></symbol>
</svg>
